<?xml version="1.0" encoding="UTF-8" standalone="no"?>
<svg
   xmlns:dc="http://purl.org/dc/elements/1.1/"
   xmlns:cc="http://creativecommons.org/ns#"
   xmlns:rdf="http://www.w3.org/1999/02/22-rdf-syntax-ns#"
   xmlns:svg="http://www.w3.org/2000/svg"
   xmlns="http://www.w3.org/2000/svg"
   xmlns:sodipodi="http://sodipodi.sourceforge.net/DTD/sodipodi-0.dtd"
   xmlns:inkscape="http://www.inkscape.org/namespaces/inkscape"
   id="svg2"
   height="216.98"
   width="180.84"
   version="1.1"
   sodipodi:docname="Venevisión.svg"
   inkscape:version="1.0.1 (3bc2e813f5, 2020-09-07)">
  <defs
     id="defs6822" />
  <sodipodi:namedview
     pagecolor="#ffffff"
     bordercolor="#666666"
     borderopacity="1"
     objecttolerance="10"
     gridtolerance="10"
     guidetolerance="10"
     inkscape:pageopacity="0"
     inkscape:pageshadow="2"
     inkscape:window-width="1920"
     inkscape:window-height="1017"
     id="namedview6820"
     showgrid="true"
     inkscape:zoom="3.0763611"
     inkscape:cx="73.288694"
     inkscape:cy="79.384201"
     inkscape:window-x="-8"
     inkscape:window-y="-8"
     inkscape:window-maximized="1"
     inkscape:current-layer="layer1"
     inkscape:document-rotation="0">
    <inkscape:grid
       type="xygrid"
       id="grid831" />
  </sodipodi:namedview>
  <metadata
     id="metadata7">
    <rdf:RDF>
      <cc:Work
         rdf:about="">
        <dc:format>image/svg+xml</dc:format>
        <dc:type
           rdf:resource="http://purl.org/dc/dcmitype/StillImage" />
        <dc:title></dc:title>
      </cc:Work>
    </rdf:RDF>
  </metadata>
  <g
     id="layer1"
     transform="translate(-253.56602,-318.45706)">
    <path
       id="path3050"
       fill="#003398"
       d="m 359.49,534.07 c -1.9309,-0.71189 -6.2714,-2.688 -9.6456,-4.3913 l -6.135,-3.0969 -7.2344,3.7117 c -6.6085,3.3906 -7.9369,3.7104 -15.354,3.6964 -6.3819,-0.0121 -8.9762,-0.47559 -12.12,-2.1656 l -4,-2.1502 3,-1.1558 c 4.3959,-1.6936 14.075,-3.747 21.465,-4.5536 l 6.4647,-0.70566 -4.9647,-2.4888 c -2.7306,-1.3688 -6.0217,-3.4509 -7.3136,-4.6269 -2.5848,-2.3527 -7.5972,-11.525 -6.7571,-12.365 0.81869,-0.81869 10.711,2.6764 14.086,4.9768 1.6612,1.1323 5.116,4.0686 7.6772,6.5252 l 4.6569,4.4666 5.8876,-6.017 c 5.0036,-5.1136 6.9173,-6.335 12.745,-8.1351 3.7717,-1.165 7.0682,-1.9076 7.3255,-1.6503 1.1112,1.1112 -0.98393,7.3098 -3.3236,9.8331 -1.4028,1.5129 -5.2732,4.125 -8.6008,5.8048 -3.3276,1.6798 -5.8922,3.2014 -5.699,3.3814 0.19315,0.18 4.8512,0.81287 10.351,1.4064 5.5,0.5935 12.2,1.8303 14.889,2.7484 l 4.8885,1.6694 -2.3885,1.8564 c -2.6599,2.0673 -11.126,4.8996 -14.32,4.7908 -1.1377,-0.0388 -3.6483,-0.65292 -5.5792,-1.3648 z m -67.789,-9.6143 c -4.5122,-1.8105 -11.397,-7.1535 -10.445,-8.1056 0.51438,-0.51438 4.1357,-1.2036 8.0474,-1.5315 5.9912,-0.50228 7.926,-0.2462 12.275,1.6248 7.7546,3.3359 8.5022,1.4258 2.094,-5.35 -4.8271,-5.104 -5.1718,-5.8056 -5.1718,-10.528 0,-6.1693 1.0718,-6.4022 6.8198,-1.4821 2.7735,2.374 5.4093,6.1592 7.834,11.25 2.0098,4.2197 4.4876,8.8706 5.5063,10.335 l 1.8521,2.663 -6.3402,0.0487 c -3.4871,0.0268 -7.5692,0.51592 -9.0712,1.087 -3.3084,1.2579 -10.252,1.2521 -13.401,-0.0112 z m 88.8,-1.5006 c -2.475,-0.7089 -6.9176,-1.3251 -9.8724,-1.3694 -4.8278,-0.0723 -5.2333,-0.24281 -4,-1.6818 0.75484,-0.88075 3.3974,-5.6976 5.8724,-10.704 3.4074,-6.8926 5.5508,-9.9029 8.8277,-12.399 2.3803,-1.8128 4.7032,-3.296 5.1621,-3.296 1.3632,0 2.1954,7.3825 1.144,10.148 -0.53494,1.407 -2.8089,4.13 -5.0532,6.0511 -3.8348,3.2824 -5.3951,6.801 -3.016,6.801 0.58554,0 3.3018,-0.96241 6.0361,-2.1387 3.9797,-1.712 6.1255,-2.0181 10.756,-1.5341 3.1816,0.33254 6.8418,0.99568 8.1339,1.4736 2.2688,0.83928 2.1897,0.97879 -2.3098,4.0746 -5.1641,3.553 -11.799,6.1942 -15.057,5.9939 -1.1684,-0.0718 -4.1493,-0.71062 -6.6243,-1.4195 z m -92,-13.66 c -4.125,-0.98117 -9.1143,-2.017 -11.087,-2.3019 -4.4325,-0.64003 -10.592,-5.7629 -13.788,-11.467 l -2.3753,-4.2396 4.3753,0.66259 c 8.9498,1.3554 10.134,1.8451 15.071,6.2297 6.4524,5.7306 8.166,4.7242 4.9926,-2.9322 -1.2038,-2.9044 -2.1887,-6.1107 -2.1887,-7.1252 0,-2.5493 4.1618,-9.7296 5.4002,-9.3168 2.4183,0.80611 5.5999,9.0968 5.6056,14.607 0.003,3.076 0.4434,8.265 0.97824,11.531 0.53485,3.2661 0.86974,5.9828 0.74421,6.0372 -0.12553,0.0543 -3.6032,-0.70405 -7.7282,-1.6852 z m 101.63,-4.9519 c 0.75248,-2.9009 1.3681,-8.2309 1.3681,-11.844 0,-6.7182 2.9785,-14.928 5.7201,-15.767 1.7934,-0.54876 5.2719,5.7561 5.2762,9.5632 0.002,1.8094 -0.89626,5.054 -1.9963,7.2102 -1.10004,2.1562 -2,4.3882 -2,4.9602 0,1.9872 3.6657,1.0243 6.0757,-1.596 1.3334,-1.4497 4.2243,-3.4451 6.4243,-4.4341 4.2401,-1.9063 14.5,-3.6674 14.5,-2.489 0,1.6334 -6.3304,9.7092 -9.5146,12.138 -2.5924,1.9773 -5.2806,2.8521 -10.723,3.4895 -6.7138,0.78631 -10.786,1.7124 -14.881,3.3838 -1.4699,0.60004 -1.4928,0.17748 -0.25,-4.6138 z m -114.51,-14.71 c -1.8611,-1.4503 -6.3598,-4.2119 -9.997,-6.1369 -5.0578,-2.6768 -7.1431,-4.4679 -8.8668,-7.6154 -2.4107,-4.4021 -4.1516,-13.385 -2.594,-13.385 0.51159,0 3.3853,1.4625 6.3859,3.25 3.8959,2.3208 6.0276,4.4268 7.4558,7.3662 4.4896,9.2401 6.5,9.1868 6.5,-0.17239 0,-5.9927 0.25019,-6.715 3.6164,-10.441 1.989,-2.2016 4.2186,-4.0029 4.9547,-4.0029 1.7151,0 2.8477,5.98 2.0625,10.89 -0.33379,2.0874 -1.5727,5.9786 -2.7532,8.6472 -1.1804,2.6686 -2.424,6.9635 -2.7633,9.5441 l -0.61705,4.6921 -3.3839,-2.6369 z m 131.88,-3.1314 c 0,-1.7448 -1.35,-6.5438 -3,-10.664 -3.0278,-7.5616 -3.972,-16.258 -2.0881,-19.233 0.72504,-1.145 1.4283,-1.0022 3.9667,0.8053 4.977,3.5439 6.1214,5.9276 6.1214,12.75 0,9.1175 2.0149,9.119 6.5,0.005 1.5452,-3.1401 3.4325,-4.8417 8.2996,-7.4833 3.4648,-1.8805 6.5416,-3.1771 6.8374,-2.8813 1.2099,1.2099 -1.937,11.899 -4.3459,14.762 -1.4096,1.6752 -5.5825,4.5665 -9.2731,6.4251 -3.6906,1.8586 -8.1295,4.5734 -9.8641,6.033 l -3.1539,2.6536 v -3.1723 z M 268.56602,318.45706 h 35 l 40,90 40,-90 30.84438,-0.009 -70.84438,162.009 z M 266.766,463.5668 c -1.229,-2.1526 -4.0392,-5.9987 -6.2447,-8.547 -2.2055,-2.5483 -4.2942,-5.7655 -4.6416,-7.1495 -0.74396,-2.9642 0.069,-9.8036 1.6574,-13.944 l 1.1242,-2.9305 2.4886,3 c 4.9175,5.9279 5.858,7.9944 6.3506,13.952 0.65439,7.9153 2.5749,7.9893 6.2666,0.24151 2.2786,-4.7823 3.5131,-6.1452 7,-7.728 6.4743,-2.9389 8.0372,-2.6607 7.2149,1.2843 -1.0553,5.0625 -5.1119,11.342 -9.9279,15.367 -2.4176,2.0208 -5.2084,5.1836 -6.202,7.0285 -0.99351,1.8448 -2.0416,3.3508 -2.329,3.3466 -0.28743,-0.004 -1.5282,-1.7689 -2.7572,-3.9214 z m 149.23,-1.0921 c -0.35284,-1.1117 -3.9191,-5.2742 -7.925,-9.25 -5.0271,-4.9893 -7.837,-8.7072 -9.0702,-12.001 -0.98273,-2.6248 -1.4997,-5.0594 -1.1489,-5.4102 1.0078,-1.0078 8.9349,1.6734 11.241,3.8021 1.1498,1.0612 3.147,4.1851 4.4383,6.942 3.1665,6.7606 5.2982,6.3474 5.9712,-1.1573 0.49691,-5.5415 3.5113,-11.342 8.0099,-15.413 1.7763,-1.6075 1.9242,-1.4521 3.4233,3.5959 2.7294,9.191 1.858,12.756 -4.8782,19.958 -2.3876,2.5525 -5.0757,6.0616 -5.9737,7.7981 -1.8851,3.6454 -3.1776,4.0045 -4.088,1.1359 z m -144.83,-21.645 c -0.36667,-0.36666 -0.66667,-1.9248 -0.66667,-3.4625 0,-1.5377 -0.95215,-5.3407 -2.1159,-8.451 -2.7825,-7.4369 -2.119,-12.11 2.7166,-19.131 l 3.7567,-5.4546 1.4034,2.6785 c 2.293,4.3763 2.7301,12.637 0.86003,16.253 -3.686,7.1279 -0.23134,8.4914 5.818,2.2964 2.1146,-2.1656 5.0731,-4.4462 6.5743,-5.068 3.4124,-1.4135 10.487,-0.92525 10.487,0.72371 0,2.5771 -7.3031,8.7826 -14,11.896 -3.85,1.7898 -8.5499,4.4088 -10.444,5.82 -3.9448,2.9387 -3.5293,2.7589 -4.389,1.8991 z m 141.1,-4.3055 c -1.3599,-1.0697 -6.3321,-3.7876 -11.049,-6.0397 -7.9497,-3.7954 -15.713,-10.214 -15.713,-12.991 0,-1.5103 9.7254,-1.193 12.8,0.41756 1.4852,0.77808 4.2511,3.0281 6.1465,5 3.2902,3.423 7.0538,4.7732 7.0538,2.5305 0,-0.58018 -0.96289,-3.1677 -2.1398,-5.75 -2.2251,-4.8823 -2.057,-7.289 1.0858,-15.554 1.2699,-3.3396 2.2611,-2.8358 6.524,3.3156 4.3606,6.2924 4.7995,10.281 1.9608,17.823 -1.337,3.5521 -2.4309,7.7282 -2.4309,9.2803 0,3.7495 -1.2402,4.3254 -4.2375,1.9678 z"
       style="fill:#000000"
       sodipodi:nodetypes="cccscccscccccsccsssssscccsscccsccssssccssccccsccsscscsccsccccccscssscsccccscsssscscsccccccscssssscccccscssscsscscccsccccccccsccccccccccccccsssccssscccccscccccccsccccccscsscsssscc" />
  </g>
</svg>
